<svg width="1169" height="982" viewBox="0 0 1169 982" fill="none" xmlns="http://www.w3.org/2000/svg">
<g style="mix-blend-mode:multiply" opacity="0.8" filter="url(#filter0_f_15_1201)">
<path d="M333.881 227.63L563.778 149.859L770.386 102.928C787.819 98.9677 805.955 99.3163 823.222 103.943L963.173 141.443C991.255 148.967 1015.22 167.303 1029.82 192.442L1053.49 233.193C1066.7 255.94 1071.33 282.668 1066.53 308.531L1024.02 537.43C1020.74 555.079 1013.19 571.659 1002.03 585.72L905.283 707.641C901.4 712.534 897.942 717.748 894.945 723.227L841.608 820.729C825.004 851.082 795.086 871.855 760.844 876.806L736.081 880.386C702.14 885.293 667.852 874.09 643.357 850.089L619.803 827.011C610.115 817.518 602.266 806.316 596.652 793.969L568.651 732.384C547.488 685.839 497.044 660.013 446.909 670.056L257.747 707.949C206.246 718.266 154.636 690.733 134.524 642.211L108.394 579.171C93.2673 542.675 98.8729 500.871 123.08 469.65L282.2 264.427C295.439 247.352 313.414 234.554 333.881 227.63Z" fill="#55ADFF"/>
</g>
<defs>
<filter id="filter0_f_15_1201" x="0.0100098" y="0.194824" width="1168.37" height="981.324" filterUnits="userSpaceOnUse" color-interpolation-filters="sRGB">
<feFlood flood-opacity="0" result="BackgroundImageFix"/>
<feBlend mode="normal" in="SourceGraphic" in2="BackgroundImageFix" result="shape"/>
<feGaussianBlur stdDeviation="50" result="effect1_foregroundBlur_15_1201"/>
</filter>
</defs>
</svg>
